<?xml version="1.0" standalone="no"?>
<!DOCTYPE svg PUBLIC "-//W3C//DTD SVG 20010904//EN"
 "http://www.w3.org/TR/2001/REC-SVG-20010904/DTD/svg10.dtd">
<svg version="1.0" xmlns="http://www.w3.org/2000/svg"
 width="300.000000pt" height="300.000000pt" viewBox="0 0 300.000000 300.000000"
 preserveAspectRatio="xMidYMid meet">
<metadata>
Created by potrace 1.10, written by Peter Selinger 2001-2011
</metadata>
<g transform="translate(0.000000,300.000000) scale(0.100000,-0.100000)"
fill="#000000" stroke="none">
<path d="M1693 2269 c-53 -26 -94 -73 -133 -148 -35 -69 -77 -108 -128 -116
-124 -21 -230 -77 -295 -157 -124 -151 -129 -368 -13 -525 171 -232 505 -253
699 -43 154 165 166 372 35 557 -34 46 -60 141 -51 184 10 50 37 69 99 69 45
0 59 4 79 25 30 29 31 50 5 93 -46 75 -204 107 -297 61z m179 -19 c50 -14 98
-56 98 -85 0 -31 -12 -37 -76 -39 -41 -1 -59 -7 -78 -25 -35 -33 -50 -83 -42
-144 9 -65 25 -103 70 -161 49 -65 69 -138 64 -240 -4 -110 -43 -190 -132
-274 -91 -84 -149 -106 -286 -107 -98 0 -110 2 -172 32 -170 80 -270 260 -239
428 33 175 149 291 329 328 107 22 131 41 182 138 71 137 158 183 282 149z"/>
<path d="M1760 2187 c-62 -32 -61 -50 0 -19 28 14 65 25 81 24 44 -1 89 -12
89 -22 0 -4 -10 -6 -22 -3 -19 4 -20 3 -8 -6 21 -15 40 -13 40 4 0 21 -52 45
-98 45 -21 0 -58 -10 -82 -23z"/>
<path d="M1697 2119 c-24 -14 -47 -69 -47 -112 0 -20 12 -52 32 -83 61 -95 44
-186 -43 -231 -50 -25 -38 -32 13 -7 55 26 73 60 73 135 0 51 -4 72 -19 88
-15 17 -17 25 -8 48 6 16 16 53 21 83 5 30 13 63 16 73 8 20 -10 22 -38 6z"/>
<path d="M1396 1897 c-12 -9 -17 -23 -14 -42 3 -26 7 -30 39 -33 40 -3 69 17
69 48 0 35 -60 52 -94 27z m84 -37 c0 -10 -32 -30 -49 -30 -19 0 -12 17 12 28
28 14 37 14 37 2z"/>
<path d="M1211 1815 c-17 -20 -31 -41 -31 -48 0 -20 21 -37 45 -37 26 0 79 53
72 72 -4 9 -6 9 -6 -3 -1 -18 -48 -65 -57 -57 -9 9 13 44 42 67 29 23 24 41
-11 41 -14 0 -35 -14 -54 -35z"/>
<path d="M1615 1841 c-53 -15 -83 -58 -65 -91 6 -11 15 -20 21 -20 13 0 57 49
64 73 4 9 11 17 16 17 18 0 9 -38 -16 -65 -14 -15 -20 -25 -14 -23 26 9 52 56
45 81 -7 28 -22 36 -51 28z"/>
<path d="M1773 1808 c0 -36 1 -39 13 -24 11 16 15 14 40 -23 14 -23 28 -41 31
-41 7 0 -25 55 -55 92 l-29 37 0 -41z"/>
<path d="M1347 1718 c-23 -18 -36 -59 -26 -85 6 -18 16 -23 41 -23 18 0 28 4
21 8 -8 5 -3 20 15 52 24 40 27 42 30 22 2 -13 -4 -35 -13 -50 l-16 -27 20 24
c21 24 26 47 15 75 -7 19 -63 22 -87 4z"/>
<path d="M1766 1708 c-22 -32 -20 -62 8 -95 32 -39 46 -68 46 -95 l0 -22 23
22 c31 32 32 137 1 179 -27 36 -57 41 -78 11z m63 -54 c15 -54 4 -69 -25 -35
-26 32 -30 51 -12 69 16 16 26 7 37 -34z"/>
<path d="M1534 1655 c-11 -27 5 -63 37 -86 l31 -22 20 21 c26 26 17 57 -25 83
-38 23 -56 24 -63 4z"/>
<path d="M1146 1618 c-24 -33 -20 -75 9 -104 21 -21 28 -23 45 -14 22 12 41
50 39 78 -1 9 -6 0 -13 -20 -20 -66 -30 -62 -26 12 2 33 20 70 20 40 0 -7 3
-10 6 -7 12 11 -18 37 -42 37 -12 0 -30 -10 -38 -22z"/>
<path d="M1361 1524 c-12 -15 -21 -30 -21 -35 0 -41 63 -62 105 -35 27 18 34
63 13 84 -22 22 -75 14 -97 -14z m83 -55 c-9 -10 -28 -19 -42 -19 -23 0 -22 2
14 28 41 30 59 25 28 -9z"/>
<path d="M1645 1543 c11 -2 30 -6 43 -9 25 -5 30 -29 6 -38 -9 -3 -42 -6 -74
-6 -53 0 -61 -3 -77 -27 -34 -50 -89 -102 -117 -109 -18 -4 -41 -1 -65 10
l-36 16 24 -20 c49 -42 116 -19 177 60 39 51 44 53 101 50 38 -2 93 25 93 45
0 19 -32 35 -67 34 -20 -1 -22 -3 -8 -6z"/>
<path d="M1127 1430 c6 -21 23 -38 23 -22 0 21 56 -2 75 -31 26 -40 36 -42 70
-15 l28 22 -23 18 c-16 13 -39 18 -79 18 -34 0 -65 6 -78 15 -20 14 -21 13
-16 -5z"/>
<path d="M1767 1430 c-40 -12 -57 -29 -57 -57 0 -92 -121 -143 -220 -93 -63
32 -126 23 -118 -16 6 -32 56 -49 144 -48 92 1 163 27 229 85 36 32 95 113 95
131 0 10 -36 9 -73 -2z m8 -54 c-20 -30 -35 -34 -35 -8 0 11 10 24 23 29 29
14 32 10 12 -21z"/>
<path d="M1530 1367 c0 -27 27 -56 56 -58 67 -7 79 21 24 56 -51 32 -80 33
-80 2z"/>
<path d="M1342 2049 c-29 -5 -79 -20 -112 -34 -56 -24 -62 -24 -90 -10 -38 20
-43 19 -30 -4 17 -32 12 -56 -21 -97 -40 -50 -86 -147 -94 -199 -5 -36 -4 -37
6 -15 75 165 111 213 204 275 57 38 152 75 191 75 13 0 26 5 29 10 7 11 -9 11
-83 -1z"/>
<path d="M1920 1839 c0 -3 11 -27 24 -55 56 -116 61 -272 13 -378 -15 -32 -27
-60 -27 -61 0 -1 16 5 35 14 20 9 33 21 30 29 -5 14 12 53 28 63 5 4 6 13 1
20 -5 8 -7 43 -6 79 3 70 -16 158 -47 218 -20 39 -50 81 -51 71z"/>
<path d="M981 1541 c-1 -29 6 -79 14 -111 20 -76 73 -190 90 -190 6 0 32 -16
56 -34 56 -45 63 -38 12 12 -86 83 -134 177 -158 307 l-13 70 -1 -54z"/>
<path d="M1805 1204 c-74 -65 -199 -113 -295 -114 -31 0 -41 -3 -33 -11 7 -7
35 -7 94 1 93 12 225 68 268 114 40 42 12 49 -34 10z"/>
<path d="M828 1060 c-22 -17 -29 -18 -57 -7 -27 10 -37 9 -68 -8 -56 -30 -78
-76 -78 -160 0 -55 5 -78 23 -107 26 -41 70 -61 117 -52 23 4 35 0 49 -15 11
-12 26 -21 34 -21 12 0 12 4 -3 20 -15 17 -17 31 -12 85 l6 66 -26 -31 c-32
-39 -80 -39 -101 0 -20 38 -10 120 18 142 26 21 40 16 40 -17 0 -25 19 -38 39
-26 7 4 18 31 26 60 7 29 21 62 31 72 15 16 15 19 2 19 -8 0 -27 -9 -40 -20z"/>
<path d="M2021 918 c3 -73 2 -141 -3 -150 -8 -16 -3 -18 34 -18 l43 0 -2 67
-2 68 23 -67 c12 -37 25 -70 28 -73 3 -3 14 24 24 60 10 36 22 65 26 65 11 0
10 -58 -1 -98 -9 -30 -8 -32 17 -32 15 0 38 -3 52 -6 21 -6 23 -4 13 7 -18 18
-18 260 -1 277 9 9 7 12 -9 12 -11 0 -34 3 -50 6 -28 5 -29 4 -42 -55 -7 -34
-17 -64 -22 -66 -10 -7 -42 103 -35 121 4 11 -7 14 -47 14 l-52 0 6 -132z
m111 -21 c20 -13 42 3 70 48 l18 30 0 -52 c0 -43 -3 -51 -16 -46 -8 3 -26 0
-40 -7 -20 -11 -27 -11 -43 4 -10 10 -27 16 -38 14 -14 -2 -19 4 -21 30 -6 60
6 71 31 28 12 -22 29 -44 39 -49z"/>
<path d="M1233 1024 c-3 -9 -1 -25 6 -36 8 -14 9 -24 0 -39 -14 -28 -4 -36 20
-15 23 21 34 60 26 87 -8 23 -43 25 -52 3z"/>
<path d="M1052 987 c5 -10 8 -65 6 -123 l-3 -104 38 0 c34 0 37 2 27 19 -13
25 -13 71 0 71 6 0 10 -6 10 -14 0 -23 49 -75 91 -97 43 -21 51 -13 18 17 -12
10 -30 37 -41 58 -19 38 -19 41 -3 68 18 32 14 91 -8 105 -7 4 -42 10 -79 13
-61 5 -65 4 -56 -13z m93 -62 c0 -20 -6 -31 -17 -33 -15 -3 -18 4 -18 33 0 29
3 36 18 33 11 -2 17 -13 17 -33z"/>
<path d="M1348 998 c16 -16 16 -210 0 -226 -9 -9 2 -11 52 -6 88 8 110 31 110
115 0 69 -19 114 -52 123 -13 3 -45 6 -72 6 -39 0 -47 -3 -38 -12z m97 -48
c11 -18 7 -110 -5 -125 -21 -26 -30 -6 -30 66 0 53 3 69 14 69 8 0 18 -4 21
-10z"/>
<path d="M1585 887 l0 -122 36 0 c27 0 35 3 33 15 -9 50 -12 90 -5 90 4 0 15
-25 26 -55 17 -51 21 -55 49 -55 l31 0 0 125 0 125 -36 0 -36 0 8 -42 c17 -87
5 -89 -26 -5 -16 42 -21 47 -49 47 l-31 0 0 -123z"/>
<path d="M1805 987 c-20 -16 -28 -35 -32 -69 -11 -100 19 -158 81 -158 43 0
71 33 80 94 18 118 -57 195 -129 133z m69 -53 c19 -48 -5 -137 -32 -120 -13 8
-17 118 -5 129 11 12 31 7 37 -9z"/>
<path d="M886 990 c10 -10 -14 -179 -31 -222 -6 -15 -1 -18 34 -18 32 0 39 3
35 15 -6 16 12 45 27 45 5 0 9 -11 9 -25 0 -23 4 -25 40 -25 35 0 39 2 30 18
-12 21 -41 202 -34 214 3 4 -23 8 -57 8 -43 0 -60 -3 -53 -10z m66 -142 c-2
-5 -9 -8 -16 -8 -9 0 -12 9 -9 28 8 51 16 58 23 22 3 -19 4 -38 2 -42z"/>
<path d="M2295 860 c0 -123 1 -130 20 -130 11 0 31 -3 45 -6 21 -6 23 -4 13 7
-17 18 -18 230 -1 247 9 9 2 12 -32 12 l-45 0 0 -130z"/>
</g>
</svg>
